<svg xmlns="http://www.w3.org/2000/svg" xmlns:xlink="http://www.w3.org/1999/xlink" version="1.1" id ="Layer_1" x="0px" y="0px" viewBox="0 0 216 216" enable-background="new 0 0 216 216" xml:space="preserve" >
<path fill="#CE2334"
d ="M89.3,150.2c0.3-2,1.2-3.7,2.6-5c1.4-1.3,3.1-1.9,5.1-1.9c2.2,0,4,0.7,5.5,2.1c1.5,1.4,2.4,3,2.7,4.8H89.3z M105.9,143c-2.7-2.4-5.8-3.6-9.2-3.6c-3.4,0-6.5,1.2-9.1,3.7c-2.7,2.5-4,5.7-4,9.5c0,4.1,1.4,7.3,4.1,9.7c2.7,2.4,6,3.6,9.8,3.6c2.5,0,4.8-0.5,7.1-1.6c2.3-1.1,4.1-2.7,5.5-4.9l-4.4-1.9c-2,2.8-4.7,4.1-8.2,4.1c-2.4,0-4.3-0.7-5.8-2.1c-1.5-1.4-2.4-3.3-2.7-5.6 h21.1C110.1,149,108.7,145.4,105.9,143 M73.2,165.5l8-21.1h3.9V140H72.8v4.4h3.5l-5.4,14.2l-5.4-14.2h3.3V140H56.1v4.4h4.4l8.2,21.1 H73.2z M38.5,146.5c1.5-1.6,3.4-2.4,5.7-2.4c2.2,0,4.1,0.8,5.6,2.4c1.6,1.6,2.3,3.6,2.3,6.1c0,2.4-0.8,4.5-2.3,6.1c-1.5,1.6-3.4,2.4-5.7,2.4c-2.2,0-4.1-0.8-5.7-2.4c-1.5-1.6-2.3-3.6-2.3-6.1C36.3,150.2,37,148.2,38.5,146.5 M34.9,162.1c2.5,2.5,5.7,3.7,9.4,3.7c3.6,0,6.7-1.2,9.3-3.7c2.6-2.5,3.9-5.6,3.9-9.6c0-3.9-1.3-7.1-3.9-9.6c-2.6-2.4-5.7-3.7-9.3-3.7c-3.7,0-6.8,1.2-9.4,3.7c-2.6,2.5-3.8,5.7-3.8,9.5C31.1,156.4,32.3,159.6,34.9,162.1 M17.9,160.7v4.4h13.2v-4.4h-3.8v-31.7h-9.4v4.4 h4.5v27.3H17.9z" />
<path fill="#CE2334"
d ="M150.4,157.6c-0.8-1.3-1.2-2.9-1.2-4.8c0-4.8,1.6-7.2,4.9-7.2c1.5,0,2.8,0.6,3.7,1.8c0.9,1.2,1.3,2.9,1.3,5c0,2.4-0.5,4.2-1.4,5.4c-0.9,1.1-2.1,1.7-3.6,1.7C152.4,159.5,151.2,158.8,150.4,157.6M163.5,162.1c2.5-2.4,3.8-5.6,3.8-9.6c0-4.1-1.3-7.3-3.8-9.6c-2.5-2.3-5.7-3.5-9.4-3.5c-3.7,0-6.8,1.2-9.4,3.5c-2.5,2.3-3.8,5.5-3.8,9.6c0,4.1,1.3,7.3,3.8,9.6c2.5,2.3,5.7,3.5,9.4,3.5C157.9,165.7,161,164.5,163.5,162.1M130.7,157.7c-0.9,1.1-2.1,1.6-3.5,1.6c-1.6,0-2.8-0.6-3.7-1.8c-0.9-1.2-1.4-2.8-1.4-4.8c0-2.2,0.5-3.9,1.4-5c0.9-1.1,2.2-1.7,3.7-1.7c1.5,0,2.7,0.5,3.6,1.6c0.9,1.1,1.4,2.7,1.4,4.9C132.1,154.9,131.6,156.6,130.7,157.7M122.1,170.7v-8.1c2.2,2.1,4.7,3.1,7.3,3.1c3.3,0,5.9-1.2,7.9-3.7c2-2.4,3-5.5,3-9.2c0-3.5-1-6.6-2.9-9.2c-1.9-2.6-4.5-4-7.8-4c-2.7,0-5.2,1.2-7.5,3.5V140h-11.5v5.8h3.5v24.8h-4.2v5.8h17.3v-5.8H122.1z" />
<path fill="#CE2334"
d="M187.8,157.7c-0.9,1.1-2.1,1.6-3.5,1.6c-1.6,0-2.8-0.6-3.7-1.8c-0.9-1.2-1.4-2.8-1.4-4.8c0-2.2,0.5-3.9,1.4-5c0.9-1.1,2.2-1.7,3.7-1.7c1.5,0,2.7,0.5,3.6,1.6c0.9,1.1,1.4,2.7,1.4,4.9C189.2,154.9,188.7,156.6,187.8,157.7M179.2,170.7v-8.1c2.2,2.1,4.7,3.1,7.3,3.1c3.3,0,5.9-1.2,7.9-3.7c2-2.4,3-5.5,3-9.2c0-3.5-1-6.6-2.9-9.2c-1.9-2.6-4.5-4-7.8-4c-2.7,0-5.2,1.2-7.5,3.5V140h-11.5v5.8h3.5v24.8H167v5.8h17.3v-5.8H179.2z" />
<path fill="#CE2334" d="M98.4,74.8c4.6,0.7,7.6,2.9,9.4,6.4c1.8-3.5,4.9-5.8,9.4-6.4c0.9,0,1.8,0,2.6,0c5.9,1.2,9.3,4.7,10.2,10.7c0,1-0.1,2-0.1,2.9c-0.6,4.1-1.6,6.1-3.6,8.2l-18.6,18.4L89.3,96.7c-2-2.1-3.1-4.1-3.6-8.2c0-1-0.1-2-0.1-2.9 c0.9-6,4.3-9.6,10.2-10.7C96.7,74.8,97.5,74.8,98.4,74.8M75.7,40.6L56.4,82.1l51.5,51.5l51.5-51.5l-19.3-41.5l-32.1,32.1c0,0-0.1,0-0.1,0c0,0,0,0-0.1,0L75.7,40.6z" />
<text x="50" y="180" transform="rotate(-4 90 20) translate(90 20)" fill="#0000FF" ><tspan>engineering</tspan></text>
</svg>